# xmcd CD database file
#
# Track frame offsets:
#	150
#	11982
#	32606
#	59717
#	79206
#	95675
#	110120
#	126740
#	147183
#	162733
#
# Disc length: 2505 seconds
#
# Revision: 0
# Processed by: cddbd v1.4PL0 Copyright (c) Steve Scherf et al.
# Submitted via: CDex 1.50Beta5
#
DISCID=9c09c70a
DTITLE=Bad Luke and The Happy Few - Bad Luke and The Happy Few
DYEAR=1900
DGENRE=Blues
TTITLE0=Ain't No Way
TTITLE1=24 Hours
TTITLE2=I Don't Want You Cuttin' Off Your Hair
TTITLE3=Hard Way
TTITLE4=Bad Luke Boogie
TTITLE5=High Fashion Woman
TTITLE6=Half Pint of Whiskey
TTITLE7=Don't Run Talkin'
TTITLE8=Jump, Jive and Wail
TTITLE9=Fine Young Girl
EXTD=
EXTT0=
EXTT1=
EXTT2=
EXTT3=
EXTT4=
EXTT5=
EXTT6=
EXTT7=
EXTT8=
EXTT9=
PLAYORDER=
